<svg width="346" height="84" viewBox="0 0 346 84" fill="none" xmlns="http://www.w3.org/2000/svg">
<path d="M29.952 24.536L33.248 29.72L11.36 42.936L33.248 56.152L29.728 61.304L5.184 46.008V39.864L29.952 24.536ZM56.359 58.36C58.599 58.36 60.3803 57.9653 61.703 57.176C63.0257 56.3653 63.687 55.256 63.687 53.848C63.687 52.9307 63.495 52.152 63.111 51.512C62.727 50.872 61.959 50.2747 60.807 49.72C59.655 49.1653 57.9057 48.5893 55.559 47.992C53.3403 47.416 51.3883 46.7333 49.703 45.944C48.039 45.1547 46.7483 44.1307 45.831 42.872C44.9137 41.6133 44.455 39.992 44.455 38.008C44.455 35.1067 45.6603 32.7707 48.071 31C50.503 29.208 53.799 28.312 57.959 28.312C60.7963 28.312 63.271 28.6853 65.383 29.432C67.495 30.1787 69.2977 31.1067 70.791 32.216L67.783 36.728C66.4603 35.8533 65.0097 35.1387 63.431 34.584C61.8737 34.0293 60.1137 33.752 58.151 33.752C55.8683 33.752 54.2257 34.0933 53.223 34.776C52.2417 35.4587 51.751 36.3653 51.751 37.496C51.751 38.3493 51.9963 39.0533 52.487 39.608C52.999 40.1627 53.8737 40.6853 55.111 41.176C56.3483 41.6667 58.0977 42.2213 60.359 42.84C62.5563 43.4373 64.4657 44.1413 66.087 44.952C67.7297 45.7627 68.999 46.84 69.895 48.184C70.8123 49.5067 71.271 51.2347 71.271 53.368C71.271 55.8 70.567 57.7947 69.159 59.352C67.751 60.888 65.9163 62.0293 63.655 62.776C61.3937 63.5013 58.9617 63.864 56.359 63.864C53.223 63.864 50.5137 63.416 48.231 62.52C45.9483 61.6027 44.0283 60.4613 42.471 59.096L46.279 54.744C47.6017 55.8107 49.1163 56.6853 50.823 57.368C52.5297 58.0293 54.375 58.36 56.359 58.36ZM89.838 14.84V63H82.67V15.64L89.838 14.84ZM112.206 29.208L98.542 44.312L113.646 63H104.878L90.35 44.504L103.854 29.208H112.206ZM138.677 12.664C140.064 12.664 141.194 13.0907 142.069 13.944C142.944 14.7973 143.381 15.864 143.381 17.144C143.381 18.424 142.944 19.5013 142.069 20.376C141.194 21.2507 140.064 21.688 138.677 21.688C137.29 21.688 136.16 21.2507 135.285 20.376C134.432 19.5013 134.005 18.424 134.005 17.144C134.005 15.864 134.432 14.7973 135.285 13.944C136.16 13.0907 137.29 12.664 138.677 12.664ZM144.277 29.208V55.896C144.277 60.0987 143.402 63.5867 141.653 66.36C139.904 69.1333 137.354 71.352 134.005 73.016C130.656 74.68 126.581 75.9387 121.781 76.792L120.629 71.288C123.978 70.648 126.89 69.7627 129.365 68.632C131.84 67.5013 133.749 65.9547 135.093 63.992C136.437 62.0293 137.109 59.4907 137.109 56.376V34.456H123.765V29.208H144.277ZM185.02 54.712C185.02 56.056 185.223 57.0267 185.628 57.624C186.033 58.2213 186.684 58.6693 187.58 58.968L185.98 63.832C184.316 63.64 182.876 63.1813 181.66 62.456C180.465 61.7307 179.569 60.632 178.972 59.16C177.735 60.7387 176.167 61.9227 174.268 62.712C172.369 63.48 170.343 63.864 168.188 63.864C164.753 63.864 162.044 62.904 160.06 60.984C158.076 59.0427 157.084 56.504 157.084 53.368C157.084 49.8053 158.471 47.064 161.244 45.144C164.017 43.224 167.985 42.264 173.148 42.264H177.98V40.056C177.98 37.8587 177.319 36.2907 175.996 35.352C174.673 34.392 172.828 33.912 170.46 33.912C169.351 33.912 168.007 34.0613 166.428 34.36C164.849 34.6373 163.196 35.0747 161.468 35.672L159.708 30.616C161.82 29.8267 163.889 29.2507 165.916 28.888C167.943 28.504 169.82 28.312 171.548 28.312C176.071 28.312 179.441 29.3147 181.66 31.32C183.9 33.3253 185.02 36.0987 185.02 39.64V54.712ZM170.364 58.584C171.815 58.584 173.233 58.2 174.62 57.432C176.007 56.664 177.127 55.5867 177.98 54.2V46.744H174.012C170.641 46.744 168.231 47.3093 166.78 48.44C165.329 49.5493 164.604 51.0853 164.604 53.048C164.604 56.7387 166.524 58.584 170.364 58.584ZM227.171 29.208L215.267 63H206.883L194.979 29.208H202.659L211.235 57.048L219.843 29.208H227.171ZM241.898 48.408C242.111 51.8853 243.082 54.4027 244.81 55.96C246.559 57.5173 248.661 58.296 251.114 58.296C252.757 58.296 254.282 58.04 255.69 57.528C257.119 57.016 258.549 56.2907 259.978 55.352L263.082 59.64C261.503 60.92 259.658 61.944 257.546 62.712C255.434 63.48 253.173 63.864 250.762 63.864C247.242 63.864 244.266 63.1173 241.834 61.624C239.423 60.1307 237.589 58.0507 236.33 55.384C235.093 52.7173 234.474 49.6347 234.474 46.136C234.474 42.744 235.093 39.7147 236.33 37.048C237.567 34.36 239.338 32.2373 241.642 30.68C243.946 29.1013 246.698 28.312 249.898 28.312C254.378 28.312 257.919 29.816 260.522 32.824C263.146 35.832 264.458 39.96 264.458 45.208C264.458 45.784 264.437 46.36 264.394 46.936C264.373 47.4907 264.341 47.9813 264.298 48.408H241.898ZM249.962 33.624C247.722 33.624 245.866 34.424 244.394 36.024C242.922 37.624 242.079 40.12 241.866 43.512H257.514C257.45 40.3333 256.767 37.8907 255.466 36.184C254.186 34.4773 252.351 33.624 249.962 33.624ZM294.161 14.84L301.329 15.64V63H295.025L294.513 58.84C293.361 60.44 291.985 61.6773 290.385 62.552C288.785 63.4267 286.993 63.864 285.009 63.864C282.108 63.864 279.718 63.128 277.841 61.656C275.985 60.1627 274.598 58.0827 273.681 55.416C272.764 52.7493 272.305 49.6453 272.305 46.104C272.305 42.6693 272.838 39.6187 273.905 36.952C274.972 34.264 276.497 32.152 278.481 30.616C280.465 29.08 282.854 28.312 285.649 28.312C289.126 28.312 291.964 29.5387 294.161 31.992V14.84ZM287.537 33.816C285.126 33.816 283.249 34.8187 281.905 36.824C280.561 38.808 279.889 41.9013 279.889 46.104C279.889 50.4133 280.497 53.5387 281.713 55.48C282.95 57.4 284.678 58.36 286.897 58.36C288.518 58.36 289.926 57.8907 291.121 56.952C292.316 56.0133 293.329 54.8827 294.161 53.56V37.56C293.329 36.3653 292.358 35.448 291.249 34.808C290.14 34.1467 288.902 33.816 287.537 33.816ZM315.512 24.536L340.248 39.832V46.008L315.704 61.304L312.184 56.248L334.104 42.936L312.184 29.816L315.512 24.536Z" fill="#0BCEAF"/>
</svg>
